<?xml version="1.0" encoding="utf-8"?>
<!-- Generator: Adobe Illustrator 26.0.1, SVG Export Plug-In . SVG Version: 6.00 Build 0)  -->
<svg version="1.1" id="Capa_1" xmlns="http://www.w3.org/2000/svg" xmlns:xlink="http://www.w3.org/1999/xlink" x="0px" y="0px"
	 viewBox="0 0 50 50" style="enable-background:new 0 0 50 50;" xml:space="preserve">
<style type="text/css">
	.st0{fill:#010202;}
	.st1{fill:#FFFFFF;}
</style>
<g>
	<ellipse transform="matrix(0.7071 -0.7071 0.7071 0.7071 -10.3554 25.0001)" class="st0" cx="25" cy="25" rx="25" ry="25"/>
	<ellipse transform="matrix(0.9732 -0.2298 0.2298 0.9732 -5.075 6.4126)" class="st1" cx="25" cy="25" rx="22.49" ry="22.49"/>
	<g>
		<path d="M31.32,19.79c-0.43-1.84-1.47-3.12-3.12-3.85c-0.93-0.4-1.95-0.6-3.09-0.6c-2.17,0-3.95,0.82-5.34,2.45
			c-1.39,1.63-2.09,4.09-2.09,7.37c0,3.31,0.75,5.65,2.26,7.02c1.51,1.37,3.23,2.06,5.15,2.06c1.89,0,3.43-0.54,4.64-1.62
			c1.21-1.08,1.95-2.5,2.23-4.26h-6.23v-4.49h11.21v14.45h-3.73l-0.57-3.36c-1.08,1.27-2.06,2.17-2.92,2.69
			c-1.49,0.91-3.31,1.36-5.48,1.36c-3.57,0-6.49-1.23-8.77-3.71c-2.37-2.48-3.56-5.88-3.56-10.19c0-4.36,1.2-7.85,3.6-10.48
			c2.4-2.63,5.57-3.94,9.52-3.94c3.42,0,6.17,0.87,8.25,2.6c2.08,1.74,3.27,3.9,3.57,6.49H31.32z"/>
	</g>
</g>
</svg>
